<svg width="24" height="24" viewBox="0 0 24 24" fill="none" xmlns="http://www.w3.org/2000/svg">
<path fill-rule="evenodd" clip-rule="evenodd" d="M12 1.20001C6.03528 1.20001 1.19995 6.03534 1.19995 12C1.19995 17.9647 6.03528 22.8 12 22.8C17.9646 22.8 22.7999 17.9647 22.7999 12C22.7999 6.03534 17.9646 1.20001 12 1.20001ZM16.6121 9.25031C16.916 8.857 16.8436 8.29178 16.4503 7.98786C16.0569 7.68393 15.4917 7.7564 15.1878 8.14971L10.7473 13.8962L8.76892 11.6979C8.4364 11.3285 7.86734 11.2985 7.49788 11.631C7.12842 11.9636 7.09847 12.5326 7.43099 12.9021L10.131 15.9021C10.3095 16.1005 10.5669 16.2094 10.8337 16.1994C11.1004 16.1894 11.3489 16.0615 11.5121 15.8503L16.6121 9.25031Z" fill="#2F2D30"/>
</svg>
