<svg width="24" height="25" viewBox="0 0 24 25" fill="none" xmlns="http://www.w3.org/2000/svg">
<path d="M13 20.052C15.0173 19.7953 16.8611 18.7801 18.1568 17.2128C19.4525 15.6454 20.1027 13.6435 19.9754 11.614C19.848 9.58442 18.9527 7.6795 17.4713 6.28639C15.9898 4.89329 14.0336 4.11653 12 4.11401C9.96396 4.1125 8.00395 4.88735 6.51934 6.28069C5.03473 7.67403 4.13724 9.58101 4.00974 11.6131C3.88225 13.6451 4.53434 15.6493 5.83314 17.2173C7.13195 18.7853 8.97974 19.799 11 20.052V14.114H9V12.114H11V10.46C11 9.12301 11.14 8.63801 11.4 8.14901C11.6561 7.6652 12.052 7.2697 12.536 7.01401C12.918 6.80901 13.393 6.68601 14.223 6.63301C14.552 6.61201 14.978 6.63801 15.501 6.71301V8.61301H15C14.083 8.61301 13.704 8.65601 13.478 8.77701C13.3431 8.84637 13.2334 8.95616 13.164 9.09101C13.044 9.31701 13 9.54101 13 10.459V12.114H15.5L15 14.114H13V20.052ZM12 22.114C6.477 22.114 2 17.637 2 12.114C2 6.59101 6.477 2.11401 12 2.11401C17.523 2.11401 22 6.59101 22 12.114C22 17.637 17.523 22.114 12 22.114Z" fill="#EFEEEA"/>
</svg>
