<svg width="24" height="25" viewBox="0 0 24 25" fill="none" xmlns="http://www.w3.org/2000/svg">
<path d="M16.3748 3.74984C17.5342 3.75331 18.6451 4.21539 19.4648 5.03517C20.2846 5.85495 20.7467 6.96582 20.7502 8.12516V16.8748C20.7467 18.0342 20.2846 19.1451 19.4648 19.9648C18.6451 20.7846 17.5342 21.2467 16.3748 21.2502H7.62516C6.46582 21.2467 5.35495 20.7846 4.53517 19.9648C3.71539 19.1451 3.25331 18.0342 3.24984 16.8748V8.12516C3.25331 6.96582 3.71539 5.85495 4.53517 5.03517C5.35495 4.21539 6.46582 3.75331 7.62516 3.74984H16.3748ZM16.3748 2H7.62516C4.25625 2 1.5 4.75625 1.5 8.12516V16.8748C1.5 20.2437 4.25625 23 7.62516 23H16.3748C19.7437 23 22.5 20.2437 22.5 16.8748V8.12516C22.5 4.75625 19.7437 2 16.3748 2Z" fill="#EFEEEA"/>
<path d="M17.6873 8.12524C17.4278 8.12524 17.174 8.04827 16.9582 7.90405C16.7423 7.75983 16.5741 7.55484 16.4748 7.31502C16.3754 7.07519 16.3494 6.81129 16.4001 6.55669C16.4507 6.30209 16.5757 6.06822 16.7593 5.88467C16.9428 5.70111 17.1767 5.57611 17.4313 5.52546C17.6859 5.47482 17.9498 5.50081 18.1896 5.60015C18.4294 5.69949 18.6344 5.86772 18.7786 6.08356C18.9229 6.2994 18.9998 6.55316 18.9998 6.81274C19.0002 6.98521 18.9665 7.15605 18.9007 7.31545C18.8349 7.47486 18.7382 7.6197 18.6163 7.74165C18.4943 7.8636 18.3495 7.96026 18.1901 8.02609C18.0306 8.09192 17.8598 8.12562 17.6873 8.12524ZM12 8.99993C12.6923 8.99993 13.369 9.20521 13.9446 9.58982C14.5202 9.97442 14.9688 10.5211 15.2337 11.1606C15.4986 11.8002 15.568 12.504 15.4329 13.1829C15.2978 13.8619 14.9645 14.4856 14.475 14.9751C13.9855 15.4646 13.3618 15.7979 12.6828 15.933C12.0039 16.068 11.3001 15.9987 10.6606 15.7338C10.021 15.4689 9.47433 15.0203 9.08973 14.4447C8.70513 13.8691 8.49985 13.1924 8.49985 12.5001C8.50084 11.5721 8.86992 10.6824 9.52611 10.0262C10.1823 9.37001 11.072 9.00092 12 8.99993ZM12 7.25009C10.9617 7.25009 9.94662 7.558 9.08326 8.13487C8.2199 8.71175 7.54699 9.53169 7.14963 10.491C6.75227 11.4503 6.64831 12.5059 6.85088 13.5243C7.05345 14.5427 7.55347 15.4782 8.28769 16.2124C9.02192 16.9466 9.95738 17.4466 10.9758 17.6492C11.9942 17.8518 13.0498 17.7478 14.0091 17.3505C14.9684 16.9531 15.7883 16.2802 16.3652 15.4168C16.9421 14.5535 17.25 13.5384 17.25 12.5001C17.25 11.1077 16.6969 9.77234 15.7123 8.78778C14.7277 7.80321 13.3924 7.25009 12 7.25009Z" fill="#EFEEEA"/>
</svg>
